<svg width="25" height="25" viewBox="0 0 25 25" fill="none" xmlns="http://www.w3.org/2000/svg">
    <path opacity="0.4" fill-rule="evenodd" clip-rule="evenodd" d="M12.4184 0.167236C9.2421 0.168021 6.19614 1.43036 3.95042 3.67663C1.7047 5.92291 0.443115 8.96917 0.443115 12.1455C0.443115 15.3218 1.7047 18.3681 3.95042 20.6144C6.19614 22.8606 9.2421 24.123 12.4184 24.1238V0.167236Z" fill="#404EED"/>
    <path fill-rule="evenodd" clip-rule="evenodd" d="M24.502 24.1237H12.4184C5.80115 24.0949 0.440138 18.7778 0.440138 12.1454L0.438232 12.145H12.4185L12.4184 12.1454L12.4384 12.145H13.0444C16.0734 12.2228 18.9555 13.4666 21.09 15.6171C23.2246 17.7676 24.4468 20.6589 24.502 23.6884V24.1237Z" fill="#404EED"/>
    <path opacity="0.51" fill-rule="evenodd" clip-rule="evenodd" d="M12.4188 12.145L0.440461 12.1454C0.434778 14.6206 1.20119 17.036 2.63296 19.0551C2.64336 19.0697 2.65383 19.0844 2.66421 19.099C3.77506 20.6502 5.23898 21.9148 6.93509 22.7885C8.63119 23.6622 10.5108 24.1199 12.4187 24.1237L12.4188 12.145Z" fill="#F1F4F7"/>
    <circle cx="19.404" cy="6.15647" r="4.99094" fill="#404EED"/>
</svg>