<svg width="103" height="25" viewBox="0 0 103 25" fill="none" xmlns="http://www.w3.org/2000/svg">
<path d="M93.191 22.3506C88.1626 22.3506 84.2031 18.5725 84.2031 13.3265C84.2031 8.08053 88.1626 4.35059 93.191 4.35059C98.2436 4.35059 102.203 8.08053 102.203 13.3265C102.203 18.5725 98.2436 22.3506 93.191 22.3506ZM93.191 18.2837C95.9359 18.2837 97.4663 16.0458 97.4663 13.3265C97.4663 10.6073 95.9359 8.41743 93.191 8.41743C90.446 8.41743 88.9157 10.6073 88.9157 13.3265C88.9157 16.0458 90.446 18.2837 93.191 18.2837Z" fill="#121722"/>
<path fill-rule="evenodd" clip-rule="evenodd" d="M66.2032 22.1674C66.2031 22.1593 66.2031 22.1512 66.2031 22.1431C66.2031 16.8315 70.1626 13.0549 75.191 13.0549C80.2436 13.0549 84.2031 16.8315 84.2031 22.1431C84.2031 22.1512 84.2031 22.1593 84.2031 22.1674H79.4662C79.4663 22.1593 79.4663 22.1512 79.4663 22.1431C79.4663 19.3898 77.9359 17.1726 75.191 17.1726C72.446 17.1726 70.9157 19.3898 70.9157 22.1431C70.9157 22.1512 70.9157 22.1593 70.9157 22.1674H66.2032Z" fill="#404EED"/>
<path fill-rule="evenodd" clip-rule="evenodd" d="M84.2031 4.16728C84.2031 4.1754 84.2031 4.18352 84.2031 4.19165C84.2031 9.50321 80.2436 13.2798 75.2153 13.2798C70.1626 13.2798 66.2031 9.50321 66.2031 4.19165C66.2031 4.18352 66.2031 4.1754 66.2032 4.16728H70.94C70.94 4.1754 70.94 4.18352 70.94 4.19165C70.94 6.94489 72.4703 9.1621 75.2153 9.1621C77.9602 9.1621 79.4906 6.94489 79.4906 4.19165C79.4906 4.18352 79.4906 4.1754 79.4905 4.16728H84.2031Z" fill="#404EED"/>
<path d="M59.8772 22.1514L58.7772 18.8264H52.4772L51.3522 22.1514H46.5772L53.2272 4.20137H58.4022L64.9772 22.1514H59.8772ZM55.6772 9.40137L53.7522 15.1014H57.5522L55.6772 9.40137Z" fill="#121722"/>
<path d="M39.2178 16.6498H36.9428V22.1248H32.2178V4.17475H39.2178C43.9178 4.17475 46.7428 6.27476 46.7428 10.2998C46.7428 14.3498 43.9178 16.6498 39.2178 16.6498ZM39.1928 8.14976H36.9428V12.6748H39.1928C41.0678 12.6748 42.0428 11.7248 42.0428 10.3498C42.0428 8.94976 41.0678 8.14976 39.1928 8.14976Z" fill="#121722"/>
<path opacity="0.4" fill-rule="evenodd" clip-rule="evenodd" d="M12.4184 0.167236C9.2421 0.168021 6.19614 1.43036 3.95042 3.67663C1.7047 5.92291 0.443115 8.96917 0.443115 12.1455C0.443115 15.3218 1.7047 18.3681 3.95042 20.6144C6.19614 22.8606 9.2421 24.123 12.4184 24.1238V0.167236Z" fill="#404EED"/>
<path fill-rule="evenodd" clip-rule="evenodd" d="M24.502 24.1237H12.4184C5.80115 24.0949 0.440138 18.7778 0.440138 12.1454L0.438232 12.145H12.4185L12.4184 12.1454L12.4384 12.145H13.0444C16.0734 12.2228 18.9555 13.4666 21.09 15.6171C23.2246 17.7676 24.4468 20.6589 24.502 23.6884V24.1237Z" fill="#404EED"/>
<path opacity="0.51" fill-rule="evenodd" clip-rule="evenodd" d="M12.4188 12.145L0.440461 12.1454C0.434778 14.6206 1.20119 17.036 2.63296 19.0551C2.64336 19.0697 2.65383 19.0844 2.66421 19.099C3.77506 20.6502 5.23898 21.9148 6.93509 22.7885C8.63119 23.6622 10.5108 24.1199 12.4187 24.1237L12.4188 12.145Z" fill="#F1F4F7"/>
<circle cx="19.404" cy="6.15647" r="4.99094" fill="#404EED"/>
</svg>
